PathFileType	4	(X/Y/Z)	c:/Users/goper/Files/vsCode/490R/osim_files/C15/C15_Slow_01.trc
DataRate	CameraRate	NumFrames	NumMarkers	Units                	OrigDataRate	OrigDataStartFrame	OrigNumFrames
250.00	250.00	8	36	mm	250.0	2317	3089
                Frame#	Time	LPSIS			LASIS			LTH1			LTH2			LTH3			LTH4			LLFE			LMFE			LSH1			LSH2			LSH3			LSH4			LLMAL			LMMAL			LCAL			LMTP5			LTOE			LMTP1			RPSIS			RASIS			RTH1			RTH2			RTH3			RTH4			RLFE			RMFE			RSH1			RSH2			RSH3			RSH4			RLMAL			RMMAL			RCAL			RMTP1			RTOE			RMTP5		
		X1	Y1	Z1	X2	Y2	Z2	X3	Y3	Z3	X4	Y4	Z4	X5	Y5	Z5	X6	Y6	Z6	X7	Y7	Z7	X8	Y8	Z8	X9	Y9	Z9	X10	Y10	Z10	X11	Y11	Z11	X12	Y12	Z12	X13	Y13	Z13	X14	Y14	Z14	X15	Y15	Z15	X16	Y16	Z16	X17	Y17	Z17	X18	Y18	Z18	X19	Y19	Z19	X20	Y20	Z20	X21	Y21	Z21	X22	Y22	Z22	X23	Y23	Z23	X24	Y24	Z24	X25	Y25	Z25	X26	Y26	Z26	X27	Y27	Z27	X28	Y28	Z28	X29	Y29	Z29	X30	Y30	Z30	X31	Y31	Z31	X32	Y32	Z32	X33	Y33	Z33	X34	Y34	Z34	X35	Y35	Z35	X36	Y36	Z36

2317	9.26400	-2248.30884	1012.28101	252.50301	-2401.62524	987.41437	338.37503	-2337.78271	592.09735	392.62244	-2342.54858	545.72577	381.61752	-2388.88989	601.57135	396.56915	-2393.36743	556.56458	391.61017	-2361.18823	478.22913	372.04126	-2381.80688	451.09729	251.46423	-2257.06226	450.92325	377.57642	-2219.89771	423.63419	379.16525	-2290.02222	400.11871	385.29816	-2249.49756	378.20172	386.48792	-2030.07227	242.92772	318.27734	-2073.01025	234.35594	235.99512	-1998.94263	294.69052	272.25531	-2012.73096	107.04526	322.87213	-2067.42944	67.24580	270.83078	-2039.15942	102.87370	211.20222	-2268.57202	1022.61554	133.66728	-2432.93530	1003.09088	92.78801	-2451.82568	636.56665	41.45598	-2460.27319	590.83130	53.49554	-2508.70020	647.94031	62.26063	-2511.32397	600.54065	67.99646	-2482.94360	503.09183	87.78574	-2449.37695	487.66565	199.86420	-2410.22974	393.10651	55.32382	-2411.28247	349.75006	54.10479	-2471.35938	386.75058	68.24693	-2463.97168	345.37317	63.00711	-2414.83301	90.20493	124.65766	-2437.79004	113.82919	213.30586	-2352.76392	67.20364	165.81989	-2553.44604	48.20337	220.40379	-2591.40796	67.61533	170.92812	-2535.39380	41.98790	100.99770
2318	9.26800	-2251.84790	1012.62219	252.47551	-2405.43066	988.02112	338.06894	-2344.96973	592.61298	392.70279	-2350.37549	546.41650	381.89954	-2396.06152	602.86035	397.55844	-2400.08667	557.28467	391.11923	-2369.43042	479.08441	372.14990	-2390.03345	452.13718	251.45638	-2265.74829	452.19406	377.53937	-2228.59253	425.02768	379.29086	-2297.83862	400.92554	384.50101	-2258.03271	379.51932	386.59769	-2037.36365	245.49712	318.37585	-2081.59790	236.33350	236.51035	-2006.38660	296.70026	271.77222	-2019.26489	109.57706	323.59140	-2074.98169	69.42960	272.33191	-2047.08667	104.53060	211.95772	-2272.49414	1022.97906	133.55350	-2436.48975	1003.45459	92.45983	-2454.23511	636.57599	41.32251	-2462.47119	590.84790	53.33825	-2511.16089	647.75122	62.16740	-2512.99390	600.13037	68.12686	-2484.65503	502.84344	87.62404	-2448.85986	486.68396	199.05060	-2411.90259	393.00067	54.73137	-2412.76270	349.66333	53.58982	-2472.86597	386.49573	68.25088	-2465.41113	345.12265	62.86068	-2414.91870	90.19762	124.61040	-2437.83740	113.84618	213.29317	-2352.76929	67.21140	165.80254	-2553.46460	48.19524	220.43295	-2591.71631	67.52931	170.49074	-2535.43066	41.95438	100.96170
2319	9.27200	-2255.62207	1013.08527	252.27182	-2410.04321	988.84808	338.00909	-2352.40991	593.37079	393.64752	-2357.99219	547.05164	382.11102	-2403.18066	603.80243	397.74286	-2407.49878	558.22821	391.21719	-2377.68286	480.01083	372.34824	-2398.28687	453.15936	251.40158	-2274.55054	453.61011	377.69250	-2237.16357	426.55457	379.38528	-2306.22534	402.00150	384.49445	-2266.28125	380.84872	386.67172	-2044.16150	248.60730	319.03082	-2089.12451	238.41893	236.62907	-2013.24109	298.52301	271.12363	-2026.97839	112.06461	324.56900	-2083.02515	72.02903	273.52844	-2055.04102	106.30549	212.61823	-2276.14575	1023.29822	133.37503	-2440.01367	1003.82715	92.10077	-2456.60547	636.59381	41.20993	-2464.65381	590.81671	53.19115	-2513.55737	647.56952	62.12653	-2515.89502	600.15302	67.88186	-2486.41187	502.68756	87.43305	-2450.18872	486.46078	198.77855	-2413.49219	392.90216	54.12976	-2414.29150	349.53900	53.03017	-2474.45898	386.22205	68.02435	-2466.86450	344.95560	62.72615	-2414.96851	90.18184	124.56566	-2437.83765	113.83097	213.25569	-2352.85303	67.21505	165.82851	-2553.43018	48.15716	220.41740	-2591.45898	67.47718	170.89027	-2535.43066	41.93579	100.92475
2320	9.27600	-2259.59375	1013.49500	252.20670	-2412.98071	989.19293	337.49973	-2359.64844	594.04468	393.92047	-2365.35425	547.60742	382.11954	-2410.31055	604.55939	396.41956	-2416.02441	559.63507	392.06180	-2385.93066	480.92172	372.56357	-2406.47852	454.24835	251.39723	-2283.17188	455.08551	377.68048	-2245.66357	428.17752	379.50571	-2314.10425	403.27991	384.66718	-2274.73779	382.28604	386.83078	-2051.49146	250.99776	318.82016	-2096.65967	240.58910	236.66930	-2019.76953	300.39255	270.69843	-2035.66162	114.44055	325.52295	-2091.67334	74.49654	274.66553	-2063.81738	107.92219	213.50871	-2279.59668	1023.74701	133.06746	-2443.55225	1004.22406	91.76311	-2458.93066	636.64807	41.11682	-2466.82666	590.80280	53.03411	-2516.03320	647.39880	62.06234	-2518.11597	599.95386	67.79327	-2488.03491	502.48251	87.24007	-2451.47998	486.71338	197.89384	-2415.09766	392.84894	53.56068	-2415.81665	349.42328	52.56722	-2475.87500	386.03061	67.98499	-2468.25366	344.74313	62.59602	-2415.11084	90.21570	124.51236	-2437.86401	113.86731	213.26160	-2352.79517	67.25893	165.78064	-2553.43555	48.14698	220.44611	-2591.47632	67.41310	170.88792	-2535.47314	41.92966	100.90011
2321	9.28000	-2263.07056	1013.94153	251.98979	-2416.74341	989.83087	337.14597	-2366.87012	594.56079	394.09814	-2373.08887	548.25061	382.35547	-2417.15967	606.07928	397.63516	-2422.48755	560.31738	391.59390	-2394.02563	481.96619	372.78345	-2415.10425	455.40619	251.45711	-2291.77124	456.60474	377.81143	-2254.02588	429.86356	379.55164	-2322.89502	404.67038	384.71527	-2282.91504	383.87445	386.94772	-2058.90210	253.45076	318.58270	-2104.32007	242.84991	236.66611	-2026.37048	301.89413	270.02191	-2045.05762	116.68196	326.50302	-2101.39429	76.82537	275.90875	-2073.12231	109.60194	214.58980	-2282.89966	1023.87732	132.99411	-2447.13208	1004.59540	91.42583	-2461.19458	636.65570	41.00663	-2468.91943	590.76007	52.92777	-2518.40625	647.18390	62.01713	-2520.16211	599.70221	67.71190	-2489.74829	502.27316	87.10153	-2452.91943	486.04846	198.31953	-2416.60303	392.79123	53.13379	-2416.96875	349.41617	52.32529	-2477.29053	385.79788	67.76245	-2469.55420	344.56985	62.45089	-2415.17310	90.18425	124.48643	-2437.95093	113.91181	213.23521	-2352.85474	67.29105	165.79091	-2553.46606	48.14843	220.45110	-2591.48804	67.35052	170.87323	-2535.46826	41.87754	100.87473
2322	9.28400	-2266.84692	1014.37323	251.84570	-2420.67798	990.48267	336.88364	-2374.04053	595.26001	394.33670	-2380.74097	548.95636	382.67212	-2424.30200	607.14819	397.85233	-2430.85596	561.78052	392.41125	-2402.19897	482.97910	372.96198	-2423.57983	456.51062	252.00018	-2300.08154	458.07431	377.69424	-2262.35474	431.61295	379.55722	-2331.11401	406.06943	384.86844	-2291.05200	385.44318	386.99045	-2066.53345	255.76137	318.35852	-2112.02124	245.14627	236.58817	-2032.84900	303.19772	269.76038	-2054.81592	118.71972	327.53131	-2111.62329	79.20817	277.14001	-2082.78003	111.14104	215.70760	-2286.79419	1024.25879	132.77573	-2450.67993	1004.95477	91.06100	-2463.48291	636.71399	40.87553	-2471.74316	591.41772	52.30669	-2520.66016	646.90155	61.96210	-2522.32446	599.49347	67.56269	-2492.11060	502.33835	86.64146	-2452.54712	485.42661	195.93942	-2418.01855	392.77753	52.78915	-2418.49341	349.39404	51.92823	-2478.56323	385.64545	67.77104	-2470.81104	344.42642	62.36912	-2415.27710	90.18472	124.43249	-2438.05664	113.94781	213.21381	-2352.93066	67.34322	165.79988	-2553.50342	48.14356	220.45618	-2591.51904	67.26613	170.87704	-2535.50659	41.91819	100.86059
2323	9.28800	-2270.54468	1014.88104	251.79683	-2425.37964	991.37616	336.72101	-2381.28027	595.63324	394.92410	-2387.96143	549.60620	382.84564	-2431.49927	607.71039	396.99103	-2438.21313	562.89893	392.59622	-2410.21191	484.02551	373.15552	-2430.85522	457.79828	251.65707	-2308.37305	459.60223	377.63657	-2270.60767	433.33710	379.48685	-2339.18579	407.51273	384.99554	-2299.04272	387.07077	387.03348	-2074.23438	257.77319	318.17529	-2119.82178	247.27542	236.47336	-2039.68762	304.14029	269.33405	-2064.90430	120.55758	328.63644	-2122.22632	81.67108	278.31158	-2092.73340	112.59599	216.80072	-2290.10278	1024.58484	132.68605	-2454.12500	1005.26501	90.71282	-2465.75000	636.79016	40.72854	-2472.96362	590.68903	52.60269	-2522.93530	646.72144	61.85690	-2524.33081	599.23407	67.45003	-2492.75391	502.09604	86.90149	-2453.91968	485.30261	195.75171	-2419.25732	392.83139	52.60331	-2419.47266	349.38086	51.90831	-2479.82886	385.45364	67.58386	-2471.90479	344.30359	62.25048	-2415.34424	90.22400	124.42063	-2438.45752	114.08081	213.31372	-2352.96655	67.37682	165.80878	-2553.54395	48.13129	220.47090	-2591.51611	67.20873	170.86693	-2535.49243	41.87554	100.85805
2324	9.29200	-2274.43359	1015.36493	251.75450	-2428.35327	991.85553	336.17941	-2388.23511	596.71088	395.10175	-2395.51050	550.40594	383.28259	-2438.36938	609.35828	398.19638	-2444.71533	563.77283	392.16223	-2418.09448	485.12140	373.29303	-2438.75146	459.06183	251.63571	-2316.64062	461.20282	377.53833	-2278.71362	435.09680	379.35367	-2347.06274	408.88074	384.91647	-2306.77344	388.61111	386.90186	-2082.23242	259.32861	318.03412	-2127.67432	249.12292	236.26772	-2046.29810	304.77179	269.32224	-2075.53320	122.24777	329.74765	-2133.10864	83.94875	279.32843	-2102.30884	113.81897	217.71092	-2292.89062	1024.75757	131.53719	-2457.56104	1005.59460	90.30273	-2467.89111	636.80029	40.62341	-2475.84058	591.34003	51.97532	-2525.12451	646.47870	61.69740	-2526.36499	598.99689	67.28574	-2494.47314	501.76849	86.49409	-2456.70337	486.18210	197.06256	-2420.46924	392.85892	52.57394	-2420.74023	349.39536	51.72829	-2480.98511	385.34198	67.58593	-2472.92969	344.21033	62.20781	-2415.46191	90.26069	124.39380	-2439.35229	114.55393	214.13206	-2352.98413	67.44521	165.82275	-2553.57251	48.14291	220.47322	-2591.52612	67.13486	170.87950	-2535.52368	41.91169	100.85354
